<svg id="Layer_1" data-name="Layer 1" xmlns="http://www.w3.org/2000/svg" viewBox="0 0 200 200"><defs><style>.cls-1{fill:#fff;}</style></defs><title>message_reply</title><path class="cls-1" d="M188.85,39.11H24.2a17,17,0,0,0-17,17v94.3a17,17,0,0,0,17,17H147.8a17,17,0,0,0,17-17V86.68l29.57-35.9A7.14,7.14,0,0,0,188.85,39.11Zm-74.39,80a6.71,6.71,0,0,1-6.69,6.69H48.2a6.71,6.71,0,0,1-6.69-6.69V117a6.71,6.71,0,0,1,6.69-6.69h59.57a6.71,6.71,0,0,1,6.69,6.69Zm14.33-31a6.72,6.72,0,0,1-6.69,6.69H48.2a6.72,6.72,0,0,1-6.69-6.69V85.94a6.71,6.71,0,0,1,6.69-6.69h73.9a6.71,6.71,0,0,1,6.69,6.69Z"/></svg>