<svg id="Layer_1" data-name="Layer 1" xmlns="http://www.w3.org/2000/svg" viewBox="0 0 200 200"><defs><style>.cls-1{fill:#fff;}</style></defs><title>swipe</title><g id="Swipe"><path class="cls-1" d="M121.53,82.1l-19.27-20a3.14,3.14,0,0,0-4.52,0l-19.27,20A3.51,3.51,0,0,0,78,86.38a3.13,3.13,0,0,0,4.92.52l15-15.6a1.88,1.88,0,0,1,1.35-.58h1.48a1.88,1.88,0,0,1,1.35.58l15,15.6a3.13,3.13,0,0,0,4.92-.52A3.51,3.51,0,0,0,121.53,82.1Z"/><path class="cls-1" d="M121.53,27.43l-19.27-20a3.12,3.12,0,0,0-4.52,0l-19.27,20A3.5,3.5,0,0,0,78,31.7a3.12,3.12,0,0,0,4.92.52l15-15.6A1.88,1.88,0,0,1,99.26,16h1.48a1.88,1.88,0,0,1,1.35.58l15,15.6A3.12,3.12,0,0,0,122,31.7,3.5,3.5,0,0,0,121.53,27.43Z"/><path class="cls-1" d="M121.53,188.24l-19.27-20a3.12,3.12,0,0,0-4.52,0l-19.27,20a3.5,3.5,0,0,0-.51,4.27,3.12,3.12,0,0,0,4.92.52l15-15.6a1.88,1.88,0,0,1,1.35-.58h1.48a1.88,1.88,0,0,1,1.35.58l15,15.6a3.12,3.12,0,0,0,4.92-.52A3.5,3.5,0,0,0,121.53,188.24Z"/><path class="cls-1" d="M121.53,133.56l-19.27-20a3.14,3.14,0,0,0-4.52,0l-19.27,20a3.51,3.51,0,0,0-.51,4.28,3.13,3.13,0,0,0,4.92.52l15-15.6a1.88,1.88,0,0,1,1.35-.58h1.48a1.88,1.88,0,0,1,1.35.58l15,15.6a3.13,3.13,0,0,0,4.92-.52A3.51,3.51,0,0,0,121.53,133.56Z"/></g></svg>